<?xml version="1.0" encoding="utf-8"?>
<!-- Generator: Adobe Illustrator 28.0.0, SVG Export Plug-In . SVG Version: 6.00 Build 0)  -->
<svg version="1.1" id="Camada_1" xmlns="http://www.w3.org/2000/svg" xmlns:xlink="http://www.w3.org/1999/xlink" x="0px" y="0px"
	 viewBox="0 0 40 40" style="enable-background:new 0 0 40 40;" xml:space="preserve">
<style type="text/css">
	.st0{fill:#FFFFFF;}
	.st1{fill-rule:evenodd;clip-rule:evenodd;fill:#FFFFFF;}
</style>
<path class="st0" d="M26.9,12c0-0.6-0.5-1.1-1.1-1.1s-1.1,0.5-1.1,1.1v10l2.3,3.7h0V12z"/>
<path class="st1" d="M36,20c0,8.8-7.2,16-16,16S4,28.8,4,20S11.2,4,20,4S36,11.2,36,20z M25.6,32.5c-1.7,0.8-3.6,1.2-5.6,1.2
	c-7.6,0-13.7-6.1-13.7-13.7S12.4,6.3,20,6.3S33.7,12.4,33.7,20c0,4.7-2.4,8.9-6.1,11.4l-12.4-20C15,11,14.5,10.8,14,10.9
	c-0.5,0.1-0.8,0.6-0.8,1.1v16c0,0.6,0.5,1.1,1.1,1.1s1.1-0.5,1.1-1.1V16L25.6,32.5z"/>
</svg>
